<?xml version="1.0" encoding="UTF-8"?>
<svg xmlns="http://www.w3.org/2000/svg" xmlns:xlink="http://www.w3.org/1999/xlink" width="100pt" height="100pt" viewBox="0 0 100 100" version="1.1">
<g id="surface1">
<path style=" stroke:none;fill-rule:nonzero;fill:rgb(84.705882%,0%,15.294118%);fill-opacity:1;" d="M 98.480469 23.226562 C 96.886719 18.675781 94.082031 14.566406 90.375 11.351562 C 86.664062 8.128906 82.203125 5.933594 77.472656 5 C 75.6875 4.648438 73.855469 4.472656 72.023438 4.472656 C 66.675781 4.472656 61.476562 5.984375 56.984375 8.84375 C 54.28125 10.566406 51.90625 12.726562 49.949219 15.222656 C 47.992188 12.730469 45.621094 10.574219 42.917969 8.855469 C 38.429688 6 33.234375 4.492188 27.890625 4.492188 C 23.4375 4.492188 18.972656 5.589844 14.972656 7.671875 C 10.972656 9.75 7.507812 12.773438 4.945312 16.414062 C 2.324219 20.148438 0.722656 24.328125 0.195312 28.835938 C -0.265625 32.785156 0.0898438 37.027344 1.257812 41.4375 C 3.570312 50.179688 8.691406 58.152344 12.578125 63.300781 C 21.03125 74.496094 32.652344 84.660156 48.109375 94.367188 L 49.957031 95.527344 L 51.804688 94.367188 C 70.816406 82.425781 84.085938 69.816406 92.371094 55.820312 C 97.136719 47.769531 99.617188 40.597656 99.960938 33.898438 C 100.152344 30.160156 99.652344 26.570312 98.480469 23.226562 Z M 49.957031 87.316406 C 36.148438 78.421875 25.71875 69.183594 18.121094 59.117188 C 14.605469 54.464844 9.996094 47.3125 7.96875 39.664062 C 7.027344 36.097656 6.730469 32.726562 7.089844 29.644531 C 7.484375 26.292969 8.671875 23.1875 10.625 20.40625 C 12.550781 17.671875 15.160156 15.398438 18.175781 13.828125 C 21.1875 12.261719 24.550781 11.433594 27.890625 11.433594 C 31.910156 11.433594 35.820312 12.566406 39.191406 14.714844 C 42.480469 16.804688 45.121094 19.757812 46.835938 23.25 L 49.957031 29.609375 L 53.070312 23.246094 C 54.78125 19.75 57.421875 16.796875 60.714844 14.699219 C 64.089844 12.550781 68 11.414062 72.023438 11.414062 C 73.40625 11.414062 74.785156 11.546875 76.128906 11.8125 C 79.675781 12.511719 83.027344 14.164062 85.824219 16.59375 C 88.621094 19.019531 90.730469 22.109375 91.929688 25.523438 C 92.800781 28.015625 93.171875 30.710938 93.027344 33.542969 C 92.742188 39.09375 90.574219 45.226562 86.398438 52.28125 C 78.953125 64.855469 67.019531 76.332031 49.957031 87.316406 Z M 49.957031 87.316406 "/>
</g>
</svg>
