<?xml version="1.0" encoding="UTF-8"?>
<svg xmlns="http://www.w3.org/2000/svg" xmlns:xlink="http://www.w3.org/1999/xlink" width="100pt" height="100pt" viewBox="0 0 100 100" version="1.1">
<g id="surface1">
<path style=" stroke:none;fill-rule:nonzero;fill:rgb(0%,0%,0%);fill-opacity:1;" d="M 98.53125 23.238281 C 96.933594 18.683594 94.128906 14.574219 90.421875 11.355469 C 86.710938 8.132812 82.246094 5.9375 77.511719 5.003906 C 75.726562 4.652344 73.890625 4.472656 72.058594 4.472656 C 66.710938 4.472656 61.507812 5.988281 57.011719 8.847656 C 54.308594 10.570312 51.933594 12.734375 49.972656 15.230469 C 48.015625 12.738281 45.644531 10.582031 42.941406 8.859375 C 38.449219 6.003906 33.25 4.492188 27.90625 4.492188 C 23.449219 4.492188 18.980469 5.59375 14.980469 7.675781 C 10.980469 9.753906 7.511719 12.777344 4.949219 16.421875 C 2.324219 20.15625 0.726562 24.339844 0.195312 28.851562 C -0.265625 32.804688 0.0898438 37.046875 1.257812 41.460938 C 3.574219 50.203125 8.695312 58.179688 12.585938 63.332031 C 21.042969 74.535156 32.671875 84.703125 48.132812 94.414062 L 49.980469 95.578125 L 51.828125 94.414062 C 70.851562 82.46875 84.125 69.851562 92.417969 55.847656 C 97.183594 47.792969 99.667969 40.621094 100.011719 33.914062 C 100.203125 30.175781 99.703125 26.585938 98.53125 23.238281 Z M 49.980469 87.359375 C 36.167969 78.464844 25.734375 69.21875 18.128906 59.148438 C 14.613281 54.492188 10 47.335938 7.972656 39.683594 C 7.03125 36.113281 6.734375 32.742188 7.09375 29.660156 C 7.488281 26.304688 8.675781 23.199219 10.632812 20.417969 C 12.554688 17.679688 15.167969 15.40625 18.183594 13.835938 C 21.199219 12.269531 24.5625 11.4375 27.90625 11.4375 C 31.925781 11.4375 35.835938 12.574219 39.210938 14.722656 C 42.5 16.816406 45.144531 19.765625 46.859375 23.261719 L 49.980469 29.625 L 53.097656 23.257812 C 54.808594 19.761719 57.453125 16.804688 60.742188 14.707031 C 64.121094 12.558594 68.03125 11.421875 72.058594 11.421875 C 73.441406 11.421875 74.824219 11.554688 76.167969 11.820312 C 79.714844 12.519531 83.070312 14.171875 85.867188 16.601562 C 88.667969 19.03125 90.777344 22.121094 91.976562 25.539062 C 92.847656 28.027344 93.21875 30.726562 93.074219 33.558594 C 92.789062 39.113281 90.621094 45.246094 86.441406 52.308594 C 78.992188 64.890625 67.054688 76.371094 49.980469 87.359375 Z M 49.980469 87.359375 "/>
</g>
</svg>
